<?xml version="1.0" encoding="utf-8"?>
<svg width="97" height="33" viewBox="0 0 97 33" fill="none" xmlns="http://www.w3.org/2000/svg">
  <g>
    <path d="M5.448 25.44L5.688 23.52L5.688 9.648L8.136 9.648L8.136 23.52L8.376 25.44L5.448 25.44ZM0.6 11.088L0.6 8.64L13.224 8.64L13.224 11.088L11.784 10.848L2.04 10.848L0.6 11.088ZM15.84 25.44L16.08 23.52L16.08 10.56L15.84 8.64L22.008 8.64Q23.76 8.64 25.008 9.324Q26.256 10.008 26.904 11.136Q27.552 12.264 27.552 13.608Q27.552 14.544 27.24 15.432Q26.928 16.32 26.256 17.052Q25.584 17.784 24.516 18.228Q23.448 18.672 21.936 18.672L18.528 18.672L18.528 23.52L18.768 25.44L15.84 25.44ZM25.488 25.44L24.432 23.52L20.496 17.76L22.632 17.76L24.336 19.224L28.416 25.44L25.488 25.44ZM18.528 16.56L21.744 16.56Q23.376 16.56 24.156 15.768Q24.936 14.976 24.936 13.728Q24.936 12.432 24.108 11.592Q23.28 10.752 21.696 10.752L18.528 10.752L18.528 16.56ZM30.168 25.44L36.36 8.64L39.336 8.64L45.528 25.44L42.768 25.44L42.216 23.52L38.184 11.952L37.944 10.44L37.752 10.44L37.512 11.952L33.48 23.52L32.928 25.44L30.168 25.44ZM33.168 20.904L33.168 18.72L42.504 18.72L42.504 20.904L33.168 20.904ZM51.048 25.44L45.096 8.64L48 8.64L48.312 10.032L51.84 20.856L52.224 22.992L52.488 22.992L52.872 20.856L56.4 10.032L56.712 8.64L59.616 8.64L53.664 25.44L51.048 25.44ZM64.488 25.44L64.488 8.64L66.936 8.64L66.936 25.44L64.488 25.44ZM62.28 25.44L62.28 23.112L63.72 23.352L67.704 23.352L69.144 23.112L69.144 25.44L62.28 25.44ZM62.28 10.968L62.28 8.64L69.144 8.64L69.144 10.968L67.704 10.728L63.72 10.728L62.28 10.968ZM72.72 25.44L72.96 23.52L72.96 10.56L72.72 8.64L75.648 8.64L75.408 10.56L75.408 23.256L81.648 23.256L83.088 23.016L83.088 25.44L72.72 25.44ZM88.008 25.44L88.248 23.52L88.248 18.72L82.584 8.64L85.464 8.64L86.064 10.032L89.064 15.696L89.352 16.968L89.544 16.968L89.832 15.696L92.784 10.032L93.384 8.64L96.264 8.64L90.672 18.72L90.672 23.52L90.912 25.44L88.008 25.44Z" fill="#FFFFFF" />
  </g>
</svg>